<?xml version="1.0" encoding="utf-8"?>
<!-- Generator: Adobe Illustrator 27.6.1, SVG Export Plug-In . SVG Version: 6.00 Build 0)  -->
<svg version="1.1" id="Artwork" xmlns="http://www.w3.org/2000/svg" xmlns:xlink="http://www.w3.org/1999/xlink" x="0px" y="0px"
	 viewBox="0 0 571.1 151.6" style="enable-background:new 0 0 571.1 151.6;" xml:space="preserve">
<style type="text/css">
	.st0{fill:#FF5100;}
</style>
<g>
	<g>
		<path class="st0" d="M497.3,26.7c5.4,0,9.7,2.8,10.7,8.8h-22.3C487,29.2,491.9,26.7,497.3,26.7 M475.4,40.4
			c0,12.8,9.4,21.9,22.2,21.9c8.8,0,15.4-3.8,19.2-9.8l-7.1-5c-2.2,3.7-6.1,5.7-12,5.9c-6.5,0.1-12-3.5-12.4-10.4l26.8,0l5.9-5.9
			c0-10.6-9.2-18.6-20.8-18.6C484.3,18.6,475.4,28.1,475.4,40.4"/>
		<path class="st0" d="M296.6,40.4c0-7.5,5-13,12.6-13c7.5,0,12.5,5.5,12.5,13c0,7.5-5,13-12.5,13C301.6,53.5,296.6,47.9,296.6,40.4
			 M331.5,40.4c0-12.2-9.7-21.9-22.3-21.9c-12.6,0-22.3,9.7-22.3,21.9s9.7,21.9,22.3,21.9C321.8,62.3,331.5,52.6,331.5,40.4"/>
		<path class="st0" d="M258.6,27.6l0,33.9h9.7l0-24c0-6.1,1.8-9.6,9.8-9.6c1.2,0,5.7,0,5.7,0v-8.4h-16.6L258.6,27.6z"/>
		<path class="st0" d="M391.9,19.5H375l-6.1,6.1l-6.2-6.1H346l-8,8.1v33.9h9.7V36.3c0-3,0.8-8.5,8.1-8.4c7.2,0.1,8.3,5.4,8.3,8.5
			v25.2h9.7V36.3c0-3,0.9-8.5,8.2-8.5c7.4,0,8.1,5.3,8.1,8.3v25.4h9.7V27.6L391.9,19.5z"/>
	</g>
	<path class="st0" d="M563.9,4.6l0-1.4h0.8c0.4,0,0.7,0.2,0.7,0.6c0,0.4-0.2,0.7-0.6,0.7L563.9,4.6z M563,7.3h0.9l0-2h0.3l1.3,1.9
		h1.1l-1.4-2c0.7-0.2,1.1-0.6,1.1-1.4c0-0.8-0.6-1.4-1.5-1.4H563V7.3z M564.5,8.8c-2.6,0-4.7-2.5-3.8-5.1c0.4-1.2,1.3-2.1,2.5-2.5
		c2.7-0.9,5.3,1.2,5.3,3.7C568.5,7.1,566.7,8.8,564.5,8.8 M564.5,9.7c3.1,0,5.5-2.7,4.8-5.8c-0.4-1.7-1.8-3.1-3.5-3.6
		c-3.2-0.8-6.2,1.6-6.2,4.6C559.6,7.6,561.8,9.7,564.5,9.7 M128.7,4.6l0-1.4h0.8c0.4,0,0.7,0.2,0.7,0.6c0,0.4-0.2,0.7-0.6,0.7
		L128.7,4.6z M127.8,7.3h0.9l0-2h0.3l1.3,1.9h1.1l-1.4-2c0.7-0.2,1.1-0.6,1.1-1.4c0-0.8-0.6-1.4-1.5-1.4h-1.8V7.3z M129.3,8.8
		c-2.6,0-4.7-2.5-3.8-5.1c0.4-1.2,1.3-2.1,2.5-2.5c2.7-0.9,5.3,1.2,5.3,3.7C133.4,7.1,131.5,8.8,129.3,8.8 M129.3,9.7
		c3.1,0,5.5-2.7,4.8-5.8c-0.4-1.7-1.8-3.1-3.5-3.6c-3.2-0.8-6.2,1.6-6.2,4.6C124.4,7.6,126.6,9.7,129.3,9.7"/>
	<path class="st0" d="M250.4,11l-13.6,0c-10.7,0-20.6,6.9-20.6,20.2c-0.1,13.6,10.5,20.4,20.7,20.4h13.5l0,9.9h-26.9l-17.7-17.6
		V18.7L223.5,1h26.9V11z"/>
	<polygon class="st0" points="448.8,61.5 439.9,34.4 430.6,61.5 420.7,61.5 406,19.5 416.1,19.5 426.5,49.8 435.9,19.5 443.7,19.5 
		453.2,49.8 463.6,19.5 473.8,19.5 458.7,61.5 	"/>
	<rect x="525.5" y="1" class="st0" width="9.7" height="60.5"/>
	<rect x="543.4" y="1" class="st0" width="9.7" height="60.5"/>
	<g>
		<path class="st0" d="M45.3,151.4h71.8l0-43H77.4c-17.8,0-32.2-14.8-32.2-32.1c0-17.3,14.4-32.1,32.2-32.1h39.7V1H45.3L0,44.9v62.6
			L45.3,151.4z"/>
	</g>
</g>
</svg>
